<svg width="24" height="24" viewBox="0 0 24 24" xmlns="http://www.w3.org/2000/svg">
<path d="M12.0001 4C12.4143 4 12.7501 4.33579 12.7501 4.75V11.2489H19.249C19.6632 11.2489 19.999 11.5847 19.999 11.9989C19.999 12.4131 19.6632 12.7489 19.249 12.7489H12.7501V19.2478C12.7501 19.662 12.4143 19.9978 12.0001 19.9978C11.5859 19.9978 11.2501 19.662 11.2501 19.2478V12.7489H4.75122C4.33701 12.7489 4.00122 12.4131 4.00122 11.9989C4.00122 11.5847 4.33701 11.2489 4.75122 11.2489H11.2501V4.75C11.2501 4.33579 11.5859 4 12.0001 4Z" fill="#1B2240" />
</svg>
