<svg width="16" height="15" viewBox="0 0 16 15" fill="none" xmlns="http://www.w3.org/2000/svg">
    <g filter="url(#filter0_b_11_1512)">
        <path d="M7.9999 2.74804L7.2829 2.01104C5.5999 0.28105 2.51389 0.878048 1.39989 3.05304C0.876897 4.07604 0.758897 5.55303 1.71389 7.43802C2.63389 9.25302 4.5479 11.427 7.9999 13.795C11.4519 11.427 13.3649 9.25302 14.2859 7.43802C15.2409 5.55203 15.1239 4.07604 14.5999 3.05304C13.4859 0.878048 10.3999 0.28005 8.7169 2.01004L7.9999 2.74804ZM7.9999 15C-7.33311 4.86803 3.27889 -3.03994 7.82389 1.14304C7.88389 1.19804 7.9429 1.25504 7.9999 1.31404C8.05632 1.2551 8.11503 1.19839 8.17589 1.14404C12.7199 -3.04194 23.3329 4.86703 7.9999 15Z" fill="#CAD0D8"/>
    </g>
    <defs>
        <filter id="filter0_b_11_1512" x="-4" y="-4" width="24" height="23" filterUnits="userSpaceOnUse" color-interpolation-filters="sRGB">
            <feFlood flood-opacity="0" result="BackgroundImageFix"/>
            <feGaussianBlur in="BackgroundImageFix" stdDeviation="2"/>
            <feComposite in2="SourceAlpha" operator="in" result="effect1_backgroundBlur_11_1512"/>
            <feBlend mode="normal" in="SourceGraphic" in2="effect1_backgroundBlur_11_1512" result="shape"/>
        </filter>
    </defs>
</svg>
