<svg width="32" height="32" fill="#CAD0D8" xmlns="http://www.w3.org/2000/svg">
    <path d="M7.9999 2.74804L7.2829 2.01104C5.5999 0.281048 2.51389 0.878046 1.39989 3.05304C0.876895 4.07604 0.758895 5.55303 1.71389 7.43802C2.63389 9.25302 4.5479 11.427 7.9999 13.795C11.4519 11.427 13.3649 9.25302 14.2859 7.43802C15.2409 5.55203 15.1239 4.07604 14.5999 3.05304C13.4859 0.878046 10.3999 0.280048 8.7169 2.01004L7.9999 2.74804ZM7.9999 15C-7.33311 4.86803 3.27889 -3.03994 7.82389 1.14304C7.88389 1.19804 7.9429 1.25504 7.9999 1.31404C8.05632 1.2551 8.11503 1.19839 8.17589 1.14404C12.7199 -3.04194 23.3329 4.86703 7.9999 15Z" fill="#CAD0D8"/>
</svg>
